<?xml version="1.0" encoding="UTF-8" standalone="no"?>
<!DOCTYPE svg PUBLIC "-//W3C//DTD SVG 20010904//EN"
              "http://www.w3.org/TR/2001/REC-SVG-20010904/DTD/svg10.dtd">

<svg xmlns="http://www.w3.org/2000/svg"
     width="1in" height="1.66667in"
     viewBox="0 0 300 500">
  <path id="Osbeorn Logo"
        fill="none" stroke="black" stroke-width="1"
        d="M 95.00,77.00
           C 95.00,77.00 131.00,55.20 131.00,55.20
             135.48,52.52 144.07,46.60 149.00,46.23
             155.25,45.75 168.30,54.64 174.00,57.99
             174.00,57.99 229.00,89.58 229.00,89.58
             234.20,92.56 245.11,97.52 247.26,103.01
             248.13,105.24 248.00,108.60 247.86,111.00
             247.86,111.00 247.86,203.00 247.86,203.00
             248.00,204.97 248.08,208.16 247.86,210.00
             246.02,215.60 238.63,219.63 233.00,218.71
             228.94,218.05 209.89,206.29 205.00,203.40
             205.00,203.40 116.00,150.80 116.00,150.80
             116.00,150.80 75.00,126.00 75.00,126.00
             75.00,126.00 75.00,189.00 75.00,189.00
             75.00,189.00 99.00,174.78 99.00,174.78
             101.87,173.29 107.84,170.39 111.00,170.42
             115.96,170.46 131.35,179.97 136.00,183.00
             136.00,183.00 136.00,185.00 136.00,185.00
             136.00,185.00 109.00,200.30 109.00,200.30
             109.00,200.30 92.00,209.00 92.00,209.00
             92.00,209.00 92.00,211.00 92.00,211.00
             92.00,211.00 129.00,231.58 129.00,231.58
             132.30,233.44 142.67,239.22 146.00,239.22
             148.54,239.23 153.60,236.60 156.00,235.40
             156.00,235.40 177.00,223.42 177.00,223.42
             180.03,221.71 185.58,218.49 189.00,218.39
             195.41,218.22 208.43,227.36 214.00,231.00
             214.00,231.00 214.00,233.00 214.00,233.00
             214.00,233.00 169.00,258.60 169.00,258.60
             164.27,261.41 153.14,268.75 148.00,268.61
             143.37,268.48 134.27,262.30 130.00,259.85
             130.00,259.85 90.00,236.85 90.00,236.85
             90.00,236.85 65.00,222.42 65.00,222.42
             61.88,220.63 55.75,217.58 53.74,214.79
             51.70,211.98 52.01,208.30 52.00,205.00
             52.00,205.00 52.00,112.00 52.00,112.00
             52.00,109.09 51.79,105.67 53.17,103.04
             55.55,98.53 68.88,90.74 74.00,90.25
             76.98,89.97 79.39,91.00 82.00,92.27
             82.00,92.27 111.00,109.40 111.00,109.40
             111.00,109.40 164.00,140.80 164.00,140.80
             164.00,140.80 227.00,178.00 227.00,178.00
             227.00,178.00 227.00,138.00 227.00,138.00
             223.43,140.03 213.76,145.57 210.00,145.58
             204.82,145.59 189.01,136.00 184.00,133.00
             184.00,133.00 184.00,131.00 184.00,131.00
             184.00,131.00 220.00,111.00 220.00,111.00
             220.00,111.00 220.00,109.00 220.00,109.00
             220.00,109.00 172.00,82.72 172.00,82.72
             167.93,80.40 156.99,73.45 153.00,72.82
             148.44,72.10 141.01,77.28 137.00,79.58
             131.76,82.58 121.96,89.18 116.00,88.77
             111.64,88.48 106.65,85.59 103.00,83.32
             99.54,81.16 97.72,80.11 95.00,77.00 Z" />
</svg>
